# xmcd
#
# Track frame offsets:
#	150
#	3363
#	25107
#	45469
#	61988
#	83187
#	103351
#	122319
#	139654
#	160499
#	181489
#	203380
#	226794
#	250975
#	264694
#	284484
#
# Disc length: 4047 seconds
#
# Revision: 0
# Processed by: cddbd v1.5.2PL0 Copyright (c) Steve Scherf et al.
# Submitted via: EasyCDDAExtractor 2010.6.0.0
#
DISCID=d40fcd10
DTITLE=Mötley Crüe - Dr. FeelGood 20th Aniversary Expanded Edition
DYEAR=2009
DGENRE=Glam Metal
TTITLE0=T.n.T. (Terror 'n Tinseltown)
TTITLE1=Dr. Feelgood
TTITLE2=Slice Of Your Pie
TTITLE3=Rattlesnake Shake
TTITLE4=Kickstart My Heart
TTITLE5=Without You
TTITLE6=Same Ol' Situation
TTITLE7=Sticky Sweet
TTITLE8=She Goes Down
TTITLE9=Don't Go Away Mad (Just Go Away)
TTITLE10=Time For Change
TTITLE11=Dr. Feelgood (Live)
TTITLE12=Kickstart My Heart (Live)
TTITLE13=Without You (Live)
TTITLE14=Same Ol' Situation (Live)
TTITLE15=Don't Go Away Mad (Just Go Away) (live)
EXTD=
EXTT0=
EXTT1=
EXTT2=
EXTT3=
EXTT4=
EXTT5=
EXTT6=
EXTT7=
EXTT8=
EXTT9=
EXTT10=
EXTT11=
EXTT12=
EXTT13=
EXTT14=
EXTT15=
PLAYORDER=
